<mxfile host="app.diagrams.net" modified="2024-06-16T06:44:34.216Z" agent="Mozilla/5.0 (Windows NT 10.0; Win64; x64) AppleWebKit/537.36 (KHTML, like Gecko) Chrome/125.0.0.0 Safari/537.36" version="24.5.4" etag="jSTEWNxS5LHv3LlwqE-T" type="github">
  <diagram name="Page-1" id="xmClVAfaxYbnf_JC5kth">
    <mxGraphModel>
      <root>
        <mxCell id="0" />
        <mxCell id="1" parent="0" />
      </root>
    </mxGraphModel>
  </diagram>
</mxfile>
